<?xml version="1.0" encoding="UTF-8" standalone="no"?>
<svg
   id="Layer_1"
   data-name="Layer 1"
   viewBox="0 0 24 24"
   width="16"
   height="16"
   fill="#FFF"
   version="1.1"
   sodipodi:docname="yin-yang-white.svg"
   inkscape:version="1.3 (0e150ed6c4, 2023-07-21)"
   xmlns:inkscape="http://www.inkscape.org/namespaces/inkscape"
   xmlns:sodipodi="http://sodipodi.sourceforge.net/DTD/sodipodi-0.dtd"
   xmlns="http://www.w3.org/2000/svg"
   xmlns:svg="http://www.w3.org/2000/svg">
  <defs
     id="defs1" />
  <sodipodi:namedview
     id="namedview1"
     pagecolor="#ffffff"
     bordercolor="#000000"
     borderopacity="0.25"
     inkscape:showpageshadow="2"
     inkscape:pageopacity="0.0"
     inkscape:pagecheckerboard="0"
     inkscape:deskcolor="#d1d1d1"
     inkscape:zoom="36.3125"
     inkscape:cx="6.5266781"
     inkscape:cy="8.5507745"
     inkscape:window-width="1920"
     inkscape:window-height="1009"
     inkscape:window-x="1912"
     inkscape:window-y="-2"
     inkscape:window-maximized="1"
     inkscape:current-layer="Layer_1" />
  <path
     d="m 11.499023,5.0009766 c -0.103749,0 -0.204004,0.00936 -0.301757,0.029297 -0.09775,0.019941 -0.194415,0.05 -0.28418,0.087891 -0.08977,0.037891 -0.172168,0.083848 -0.251953,0.1376953 -0.07978,0.053848 -0.154844,0.1167578 -0.222656,0.1845703 -0.06781,0.067812 -0.130723,0.1428712 -0.184571,0.2226562 -0.05385,0.079785 -0.0998,0.1621876 -0.137695,0.2519532 -0.03789,0.089765 -0.06795,0.1864259 -0.08789,0.2841796 -0.01994,0.097754 -0.029297,0.1980081 -0.029297,0.3017579 0,0.1037497 0.00936,0.204004 0.029297,0.3017578 0.01994,0.097754 0.05,0.1944141 0.08789,0.2841797 0.03789,0.089765 0.08385,0.172168 0.137695,0.2519531 0.05385,0.079785 0.116758,0.1548438 0.184571,0.2226562 0.06781,0.067813 0.142871,0.1307227 0.222656,0.1845703 0.07979,0.053848 0.162187,0.099805 0.251953,0.1376954 0.08976,0.037891 0.186426,0.067949 0.28418,0.087891 0.09775,0.019941 0.198008,0.029297 0.301757,0.029297 0.10375,0 0.204004,-0.00936 0.301758,-0.029297 0.09775,-0.019941 0.194414,-0.05 0.28418,-0.087891 0.08976,-0.037891 0.172168,-0.083848 0.251953,-0.1376954 0.07978,-0.053848 0.154844,-0.1167578 0.222656,-0.1845703 0.06781,-0.067812 0.130723,-0.1428711 0.184571,-0.2226562 0.05385,-0.079785 0.0998,-0.1621876 0.137695,-0.2519531 0.03789,-0.089766 0.06795,-0.186426 0.08789,-0.2841797 0.01994,-0.097754 0.0293,-0.1980081 0.0293,-0.3017578 0,-0.1037498 -0.0094,-0.2040041 -0.0293,-0.3017579 -0.01994,-0.097754 -0.05,-0.1944141 -0.08789,-0.2841796 C 12.843945,5.8252735 12.797988,5.742871 12.744141,5.6630859 12.690293,5.5833009 12.627383,5.5082421 12.55957,5.4404297 12.491758,5.3726172 12.416699,5.309707 12.336914,5.2558594 c -0.07978,-0.053848 -0.162188,-0.099805 -0.251953,-0.1376953 -0.08977,-0.037891 -0.186426,-0.067949 -0.28418,-0.087891 -0.09775,-0.019941 -0.198008,-0.029297 -0.301758,-0.029297 z"
     style="fill:#ffffff"
     id="path9" />
  <path
     id="path8"
     style="fill:#ffffff"
     d="M 12 0 C 11.793125 0 11.586162 0.0042669779 11.381836 0.014648438 C 11.17751 0.025029897 10.976915 0.041013198 10.775391 0.061523438 C 10.573865 0.082033667 10.373276 0.10730899 10.174805 0.13769531 C 9.9763326 0.16808164 9.7781733 0.20315433 9.5830078 0.24316406 C 9.3878423 0.28317379 9.1945363 0.32854924 9.0029297 0.37792969 C 8.8113231 0.42731013 8.6223653 0.48056403 8.4345703 0.5390625 C 8.2467754 0.59756097 8.0616603 0.66212836 7.8779297 0.72949219 C 7.694199 0.796856 7.5124215 0.86738289 7.3330078 0.94335938 C 7.1535942 1.0193358 6.9746486 1.0992573 6.7998047 1.1835938 C 6.6249607 1.2679303 6.4542013 1.3577516 6.2841797 1.4501953 C 6.1141581 1.542639 5.9452201 1.639936 5.7802734 1.7402344 C 5.6153269 1.8405327 5.4535642 1.942881 5.2939453 2.0507812 C 5.1343265 2.1586814 4.9763041 2.2695161 4.8222656 2.3847656 C 4.6682273 2.5000151 4.5192991 2.6198415 4.3710938 2.7421875 C 4.2228885 2.8645335 4.0766899 2.9909273 3.9345703 3.1201172 C 3.7924509 3.2493071 3.6543358 3.3827736 3.5185547 3.5185547 C 3.3827736 3.6543358 3.2493071 3.7924509 3.1201172 3.9345703 C 2.9909273 4.0766899 2.8645335 4.2228885 2.7421875 4.3710938 C 2.6198415 4.5192991 2.5000151 4.6682273 2.3847656 4.8222656 C 2.2695161 4.9763041 2.1586814 5.1343265 2.0507812 5.2939453 C 1.942881 5.4535642 1.8405327 5.6153269 1.7402344 5.7802734 C 1.639936 5.9452201 1.542639 6.1141581 1.4501953 6.2841797 C 1.3577516 6.4542013 1.2679303 6.6249607 1.1835938 6.7998047 C 1.0992573 6.9746486 1.0193358 7.1535942 0.94335938 7.3330078 C 0.86738289 7.5124215 0.796856 7.694199 0.72949219 7.8779297 C 0.66212836 8.0616603 0.59756097 8.2467754 0.5390625 8.4345703 C 0.48056403 8.6223653 0.42731013 8.8113231 0.37792969 9.0029297 C 0.32854924 9.1945363 0.28317379 9.3878423 0.24316406 9.5830078 C 0.20315433 9.7781733 0.16808164 9.9763326 0.13769531 10.174805 C 0.10730899 10.373276 0.082033667 10.573865 0.061523438 10.775391 C 0.041013198 10.976915 0.025029897 11.17751 0.014648438 11.381836 C 0.0042669779 11.586162 0 11.793125 0 12 C 0 12.206875 0.0042669779 12.413838 0.014648438 12.618164 C 0.025029897 12.82249 0.041013198 13.023085 0.061523438 13.224609 C 0.082033667 13.426135 0.10730899 13.626724 0.13769531 13.825195 C 0.16808168 14.023667 0.20315435 14.221826 0.24316406 14.416992 C 0.28317382 14.612158 0.32854921 14.805465 0.37792969 14.99707 C 0.42731014 15.188677 0.48056403 15.377635 0.5390625 15.56543 C 0.59756094 15.753224 0.66212836 15.938339 0.72949219 16.12207 C 0.79685602 16.305801 0.86738289 16.487578 0.94335938 16.666992 C 1.0193358 16.846406 1.0992573 17.025351 1.1835938 17.200195 C 1.2679307 17.375039 1.3577516 17.545799 1.4501953 17.71582 C 1.5426392 17.885842 1.639936 18.05478 1.7402344 18.219727 C 1.8405327 18.384672 1.942881 18.546436 2.0507812 18.706055 C 2.1586814 18.865674 2.2695161 19.023697 2.3847656 19.177734 C 2.5000151 19.331773 2.6198415 19.480701 2.7421875 19.628906 C 2.8645335 19.777112 2.9909273 19.92331 3.1201172 20.06543 C 3.2493071 20.207549 3.3827736 20.345664 3.5185547 20.481445 C 3.6543358 20.617226 3.7924509 20.750693 3.9345703 20.879883 C 4.0766899 21.009073 4.2228885 21.135467 4.3710938 21.257812 C 4.5192991 21.380159 4.6682273 21.499985 4.8222656 21.615234 C 4.9763041 21.730484 5.1343265 21.841318 5.2939453 21.949219 C 5.4535642 22.057119 5.6153269 22.159467 5.7802734 22.259766 C 5.9452201 22.360064 6.1141581 22.457361 6.2841797 22.549805 C 6.4542013 22.642245 6.6249607 22.73207 6.7998047 22.816406 C 6.9746486 22.900746 7.1535942 22.980664 7.3330078 23.056641 C 7.5124215 23.132621 7.694199 23.203144 7.8779297 23.270508 C 8.0616603 23.337868 8.2467754 23.40244 8.4345703 23.460938 C 8.6223653 23.519437 8.8113231 23.57269 9.0029297 23.62207 C 9.1945363 23.67145 9.3878423 23.71683 9.5830078 23.756836 C 9.7781733 23.796846 9.9763326 23.831916 10.174805 23.862305 C 10.373276 23.892695 10.573865 23.917967 10.775391 23.938477 C 10.976915 23.958987 11.17751 23.974972 11.381836 23.985352 C 11.586162 23.99574 11.793125 24 12 24 C 12.206875 24 12.413838 23.995702 12.618164 23.985352 C 12.82249 23.974972 13.023085 23.958987 13.224609 23.938477 C 13.426135 23.917967 13.626724 23.892685 13.825195 23.862305 C 14.023667 23.831915 14.221826 23.796845 14.416992 23.756836 C 14.612158 23.716826 14.805465 23.671456 14.99707 23.62207 C 15.188677 23.57269 15.377635 23.519436 15.56543 23.460938 C 15.753224 23.402438 15.938339 23.337872 16.12207 23.270508 C 16.305801 23.203148 16.487578 23.132617 16.666992 23.056641 C 16.846406 22.980661 17.025351 22.900743 17.200195 22.816406 C 17.375039 22.732066 17.545799 22.642249 17.71582 22.549805 C 17.885842 22.457365 18.05478 22.360064 18.219727 22.259766 C 18.384672 22.159467 18.546436 22.057119 18.706055 21.949219 C 18.865674 21.841318 19.023697 21.730484 19.177734 21.615234 C 19.331773 21.499985 19.480701 21.380159 19.628906 21.257812 C 19.777112 21.135467 19.92331 21.009073 20.06543 20.879883 C 20.207549 20.750693 20.345664 20.617226 20.481445 20.481445 C 20.617226 20.345664 20.750693 20.207549 20.879883 20.06543 C 21.009073 19.92331 21.135467 19.777112 21.257812 19.628906 C 21.380159 19.480701 21.499985 19.331773 21.615234 19.177734 C 21.730484 19.023697 21.841318 18.865674 21.949219 18.706055 C 22.057119 18.546436 22.159467 18.384672 22.259766 18.219727 C 22.360064 18.05478 22.457361 17.885842 22.549805 17.71582 C 22.642245 17.545799 22.73207 17.375039 22.816406 17.200195 C 22.900746 17.025351 22.980664 16.846406 23.056641 16.666992 C 23.132621 16.487578 23.203144 16.305801 23.270508 16.12207 C 23.337868 15.938339 23.40244 15.753224 23.460938 15.56543 C 23.519437 15.377635 23.57269 15.188677 23.62207 14.99707 C 23.67145 14.805465 23.71683 14.612158 23.756836 14.416992 C 23.796846 14.221826 23.831916 14.023667 23.862305 13.825195 C 23.892695 13.626724 23.917967 13.426135 23.938477 13.224609 C 23.958987 13.023085 23.974972 12.82249 23.985352 12.618164 C 23.99574 12.413833 24 12.206875 24 12 C 24 11.793125 23.995702 11.586162 23.985352 11.381836 C 23.974972 11.17751 23.958987 10.976915 23.938477 10.775391 C 23.917967 10.573865 23.892685 10.373276 23.862305 10.174805 C 23.831913 9.9763326 23.796846 9.7781733 23.756836 9.5830078 C 23.716826 9.3878423 23.671451 9.1945363 23.62207 9.0029297 C 23.57269 8.8113231 23.519436 8.6223653 23.460938 8.4345703 C 23.40244 8.2467754 23.337872 8.0616603 23.270508 7.8779297 C 23.203144 7.694199 23.132617 7.5124215 23.056641 7.3330078 C 22.980664 7.1535942 22.900743 6.9746486 22.816406 6.7998047 C 22.73207 6.6249607 22.642249 6.4542013 22.549805 6.2841797 C 22.457361 6.1141581 22.360064 5.9452201 22.259766 5.7802734 C 22.159467 5.6153269 22.057119 5.4535642 21.949219 5.2939453 C 21.841318 5.1343265 21.730484 4.9763041 21.615234 4.8222656 C 21.499985 4.6682273 21.380159 4.5192991 21.257812 4.3710938 C 21.135467 4.2228885 21.009073 4.0766899 20.879883 3.9345703 C 20.750693 3.7924509 20.617226 3.6543358 20.481445 3.5185547 C 20.345664 3.3827736 20.207549 3.2493071 20.06543 3.1201172 C 19.92331 2.9909273 19.777112 2.8645335 19.628906 2.7421875 C 19.480701 2.6198415 19.331773 2.5000151 19.177734 2.3847656 C 19.023697 2.2695161 18.865674 2.1586814 18.706055 2.0507812 C 18.546436 1.942881 18.384672 1.8405327 18.219727 1.7402344 C 18.05478 1.639936 17.885842 1.542639 17.71582 1.4501953 C 17.545799 1.3577516 17.375039 1.2679303 17.200195 1.1835938 C 17.025351 1.0992573 16.846406 1.0193358 16.666992 0.94335938 C 16.487578 0.86738289 16.305801 0.796856 16.12207 0.72949219 C 15.938339 0.66212836 15.753224 0.59756097 15.56543 0.5390625 C 15.377635 0.48056403 15.188677 0.42731013 14.99707 0.37792969 C 14.805465 0.32854924 14.612158 0.28317379 14.416992 0.24316406 C 14.221826 0.20315433 14.023667 0.16808164 13.825195 0.13769531 C 13.626724 0.10730899 13.426135 0.082033667 13.224609 0.061523438 C 13.023085 0.041013198 12.82249 0.025029897 12.618164 0.014648438 C 12.413838 0.0042669779 12.206875 0 12 0 z M 11.701172 2.0009766 C 11.850547 2.0078466 11.998295 2.0231519 12.143555 2.0449219 C 12.288815 2.0666919 12.43084 2.0940528 12.571289 2.1298828 C 12.711738 2.1657128 12.849433 2.2097338 12.984375 2.2587891 C 13.119317 2.307844 13.251144 2.3614063 13.379883 2.4228516 C 13.508621 2.4842965 13.635973 2.5519996 13.757812 2.625 C 13.879651 2.6980009 13.998061 2.7785841 14.112305 2.8623047 C 14.226548 2.9460256 14.334478 3.0353003 14.44043 3.1289062 C 14.546382 3.2225122 14.648153 3.3192189 14.745117 3.421875 C 14.842077 3.5245311 14.936157 3.6332692 15.023438 3.7441406 C 15.110717 3.855012 15.192631 3.9686623 15.269531 4.0869141 C 15.346431 4.2051657 15.417576 4.3253982 15.483398 4.4501953 C 15.549218 4.5749924 15.610988 4.7034768 15.665039 4.8339844 C 15.719089 4.9644918 15.767011 5.0970389 15.808594 5.2324219 C 15.850174 5.3678048 15.882714 5.5060844 15.911133 5.6455078 C 15.939553 5.7849313 15.961036 5.9276835 15.975586 6.0703125 C 15.990146 6.2129415 15.999023 6.355977 15.999023 6.5009766 C 15.999023 6.6459761 15.992226 6.7897197 15.978516 6.9316406 C 15.964776 7.0735617 15.943832 7.2124321 15.916992 7.3505859 C 15.890152 7.4887399 15.856693 7.6270437 15.817383 7.7607422 C 15.778073 7.8944406 15.733743 8.0247659 15.682617 8.1533203 C 15.631487 8.2818748 15.575008 8.4085281 15.512695 8.53125 C 15.450385 8.6539719 15.380474 8.7724709 15.307617 8.8886719 C 15.234757 9.0048729 15.158933 9.1165944 15.076172 9.2255859 C 14.993412 9.3345775 14.904526 9.4408986 14.8125 9.5419922 C 14.72047 9.6430858 14.623113 9.739524 14.522461 9.8320312 C 14.421809 9.9245382 14.317622 10.012471 14.208984 10.095703 C 14.100346 10.178933 13.988055 10.256809 13.87207 10.330078 C 13.756086 10.403348 13.63734 10.472539 13.514648 10.535156 C 13.391958 10.597776 13.265478 10.653801 13.136719 10.705078 C 13.00796 10.756358 12.875398 10.803528 12.741211 10.842773 C 12.607024 10.882023 12.47003 10.915853 12.331055 10.942383 C 12.192079 10.968913 12.052304 10.987857 11.90918 11.000977 C 11.702305 11.019727 11.497735 11.047708 11.296875 11.085938 C 11.096015 11.124167 10.899002 11.172798 10.705078 11.229492 C 10.511154 11.286182 10.319855 11.351639 10.133789 11.425781 C 9.9477236 11.499921 9.7661522 11.581296 9.5888672 11.671875 C 9.4115821 11.762455 9.2408248 11.861772 9.0732422 11.967773 C 8.9056596 12.073776 8.7409424 12.187206 8.5839844 12.307617 C 8.4270262 12.428029 8.2752944 12.55467 8.1298828 12.688477 C 7.9844713 12.822283 7.8468101 12.964163 7.7138672 13.110352 C 7.5809242 13.256539 7.4525601 13.406896 7.3330078 13.564453 C 7.2134556 13.72201 7.1013333 13.8858 6.9960938 14.053711 C 6.8908543 14.221622 6.7931297 14.395014 6.703125 14.572266 C 6.6131201 14.749517 6.5308792 14.931609 6.4570312 15.117188 C 6.3831833 15.302765 6.3175111 15.492655 6.2607422 15.685547 C 6.2039732 15.878439 6.1559556 16.075222 6.1171875 16.274414 C 6.0784195 16.473606 6.0491419 16.673452 6.0292969 16.87793 C 6.0094522 17.082412 6 17.290275 6 17.499023 C 6 17.634023 6.0037098 17.767383 6.0117188 17.900391 C 6.0197287 18.033397 6.03104 18.165118 6.046875 18.295898 C 6.062711 18.42668 6.0820018 18.557227 6.1054688 18.685547 C 6.1289347 18.813867 6.156595 18.940781 6.1875 19.066406 C 6.218406 19.192031 6.2548151 19.315781 6.2929688 19.438477 C 6.3311227 19.561171 6.3708048 19.682227 6.4160156 19.801758 C 6.4612266 19.921289 6.5104247 20.040117 6.5625 20.15625 C 6.6145759 20.272383 6.6707423 20.386525 6.7294922 20.499023 C 6.5519927 20.3884 6.3778451 20.271558 6.2080078 20.150391 C 6.0381706 20.029224 5.8716786 19.903707 5.7099609 19.772461 C 5.5482434 19.641215 5.3914216 19.506097 5.2382812 19.365234 C 5.085141 19.224373 4.9370743 19.078727 4.7929688 18.928711 C 4.6488633 18.778695 4.5086367 18.624527 4.3740234 18.46582 C 4.2394103 18.307114 4.1090383 18.143497 3.984375 17.976562 C 3.8597117 17.809629 3.741209 17.638566 3.6269531 17.463867 C 3.5126972 17.289168 3.4022191 17.109735 3.2988281 16.927734 C 3.1954372 16.745735 3.0979278 16.559933 3.0058594 16.371094 C 2.9137909 16.182254 2.8283353 15.99209 2.7480469 15.796875 C 2.6677585 15.60166 2.5934416 15.403277 2.5253906 15.202148 C 2.4573398 15.001021 2.3961761 14.796422 2.3408203 14.589844 C 2.2854646 14.383265 2.2365391 14.174455 2.1943359 13.962891 C 2.1521329 13.751325 2.1174602 13.537379 2.0888672 13.321289 C 2.0602742 13.105199 2.0360096 12.88519 2.0214844 12.665039 C 2.0069591 12.444888 2.0009766 12.22375 2.0009766 12 C 2.0009766 11.830938 2.0043363 11.66314 2.0126953 11.496094 C 2.0210553 11.329048 2.0342683 11.162876 2.0507812 10.998047 C 2.0672942 10.833218 2.0878367 10.668271 2.1123047 10.505859 C 2.1367727 10.343449 2.1650427 10.182254 2.1972656 10.022461 C 2.2294886 9.8626682 2.2658874 9.7048252 2.3056641 9.5478516 C 2.3454407 9.3908778 2.3874409 9.2359852 2.4345703 9.0820312 C 2.4816999 8.9280772 2.5326325 8.7757335 2.5869141 8.625 C 2.6411955 8.4742665 2.7014627 8.3240703 2.7626953 8.1767578 C 2.8239281 8.0294454 2.8880717 7.883925 2.9560547 7.7402344 C 3.0240377 7.5965437 3.0953892 7.4552978 3.1699219 7.3154297 C 3.2444544 7.1755615 3.320486 7.0381888 3.4013672 6.9023438 C 3.4822484 6.7664988 3.5662912 6.6325977 3.6533203 6.5009766 C 3.7403494 6.3693553 3.832805 6.2385248 3.9257812 6.1113281 C 4.0187574 5.9841315 4.1141683 5.8618293 4.2128906 5.7392578 C 4.311613 5.6166864 4.4133104 5.4966518 4.5175781 5.3789062 C 4.6218458 5.2611608 4.7273018 5.1459221 4.8369141 5.0332031 C 4.9465263 4.9204842 5.0590722 4.8096401 5.1738281 4.7021484 C 5.2885841 4.5946568 5.4056918 4.4878059 5.5253906 4.3857422 C 5.6450895 4.2836785 5.7671606 4.1862789 5.8916016 4.0898438 C 6.0160424 3.9934087 6.1434789 3.8991994 6.2724609 3.8085938 C 6.4014431 3.717988 6.5317165 3.6294975 6.6650391 3.5449219 C 6.7983615 3.4603462 6.9348036 3.3801027 7.0722656 3.3017578 C 7.2097277 3.2234129 7.3498102 3.1480854 7.4912109 3.0761719 C 7.6326118 3.0042583 7.7738067 2.9363752 7.9189453 2.8710938 C 8.064084 2.8058122 8.2126524 2.7420424 8.3613281 2.6835938 C 8.5100039 2.625145 8.6604881 2.5709464 8.8125 2.5195312 C 8.9645119 2.468116 9.1173136 2.4201576 9.2724609 2.3759766 C 9.4276084 2.3317955 9.583129 2.2926055 9.7412109 2.2558594 C 9.899293 2.2191131 10.060864 2.1853607 10.22168 2.15625 C 10.382496 2.127139 10.544659 2.1013531 10.708008 2.0800781 C 10.871357 2.0588031 11.034514 2.0405807 11.200195 2.0273438 C 11.365876 2.0141058 11.53336 2.005977 11.701172 2.0009766 z M 18 6.5009766 C 18 6.7097259 17.990503 6.917593 17.970703 7.1220703 C 17.950853 7.3265476 17.921582 7.5263944 17.882812 7.7255859 C 17.844043 7.9247775 17.796022 8.1215611 17.739258 8.3144531 C 17.682488 8.5073452 17.616817 8.6972337 17.542969 8.8828125 C 17.469119 9.0683913 17.38688 9.2504825 17.296875 9.4277344 C 17.206865 9.6049862 17.109146 9.7783778 17.003906 9.9462891 C 16.898667 10.1142 16.786545 10.27799 16.666992 10.435547 C 16.54744 10.593104 16.419076 10.743461 16.286133 10.889648 C 16.15319 11.035837 16.015529 11.177717 15.870117 11.311523 C 15.724706 11.44533 15.572973 11.571971 15.416016 11.692383 C 15.259057 11.812794 15.094341 11.926224 14.926758 12.032227 C 14.759175 12.138228 14.588418 12.237546 14.411133 12.328125 C 14.233848 12.418705 14.052277 12.500076 13.866211 12.574219 C 13.680145 12.648359 13.488846 12.713816 13.294922 12.770508 C 13.100998 12.827198 12.903985 12.875835 12.703125 12.914062 C 12.502265 12.952292 12.297695 12.980273 12.09082 12.999023 C 12.297695 12.980273 12.502265 12.952292 12.703125 12.914062 C 12.903985 12.875833 13.100998 12.827203 13.294922 12.770508 C 13.488846 12.713818 13.680145 12.648361 13.866211 12.574219 C 14.052277 12.500079 14.233848 12.418704 14.411133 12.328125 C 14.588418 12.237545 14.759175 12.138228 14.926758 12.032227 C 15.094341 11.926224 15.259057 11.812794 15.416016 11.692383 C 15.572973 11.571971 15.724706 11.44533 15.870117 11.311523 C 16.015529 11.177717 16.15319 11.035837 16.286133 10.889648 C 16.419076 10.743461 16.54744 10.593104 16.666992 10.435547 C 16.786545 10.27799 16.898667 10.1142 17.003906 9.9462891 C 17.109146 9.7783778 17.20687 9.6049862 17.296875 9.4277344 C 17.386885 9.2504825 17.469121 9.0683913 17.542969 8.8828125 C 17.616819 8.6972337 17.682489 8.5073452 17.739258 8.3144531 C 17.796028 8.1215611 17.844045 7.9247775 17.882812 7.7255859 C 17.921582 7.5263944 17.950863 7.3265476 17.970703 7.1220703 C 17.99055 6.917589 18 6.7097259 18 6.5009766 z M 12.500977 15.999023 C 12.604725 15.999023 12.704981 16.00842 12.802734 16.02832 C 12.900484 16.04826 12.997149 16.078321 13.086914 16.116211 C 13.176684 16.154101 13.259082 16.200061 13.338867 16.253906 C 13.418647 16.307756 13.493712 16.370664 13.561523 16.438477 C 13.629333 16.506286 13.692246 16.581348 13.746094 16.661133 C 13.799944 16.740923 13.845894 16.82332 13.883789 16.913086 C 13.921679 17.002846 13.95174 17.099512 13.97168 17.197266 C 13.99162 17.295016 14.000977 17.395275 14.000977 17.499023 C 14.000977 17.602773 13.99158 17.703027 13.97168 17.800781 C 13.95174 17.898531 13.921679 17.995195 13.883789 18.084961 C 13.845899 18.174721 13.799939 18.257129 13.746094 18.336914 C 13.692244 18.416704 13.629336 18.491758 13.561523 18.55957 C 13.493714 18.62738 13.418652 18.690293 13.338867 18.744141 C 13.259077 18.797991 13.17668 18.843941 13.086914 18.881836 C 12.997154 18.919726 12.900488 18.949787 12.802734 18.969727 C 12.704984 18.989667 12.604725 18.999023 12.500977 18.999023 C 12.397227 18.999023 12.296973 18.989627 12.199219 18.969727 C 12.101469 18.949787 12.004805 18.919726 11.915039 18.881836 C 11.825279 18.843946 11.742871 18.797986 11.663086 18.744141 C 11.583306 18.690291 11.508242 18.627383 11.44043 18.55957 C 11.37262 18.49176 11.309707 18.416699 11.255859 18.336914 C 11.202009 18.257124 11.156059 18.174726 11.118164 18.084961 C 11.080274 17.995191 11.050213 17.898535 11.030273 17.800781 C 11.010333 17.703031 11.000977 17.602773 11.000977 17.499023 C 11.000977 17.395275 11.010373 17.295019 11.030273 17.197266 C 11.050213 17.099516 11.080274 17.002851 11.118164 16.913086 C 11.156054 16.823316 11.202014 16.740918 11.255859 16.661133 C 11.309709 16.581343 11.372617 16.506288 11.44043 16.438477 C 11.50824 16.370667 11.583301 16.307754 11.663086 16.253906 C 11.742866 16.200056 11.825274 16.154106 11.915039 16.116211 C 12.004809 16.078321 12.101465 16.04826 12.199219 16.02832 C 12.296969 16.00838 12.397227 15.999023 12.500977 15.999023 z " />
  <path
     d="m 11.701172,2.0009766 c -0.167812,0.005 -0.335296,0.01313 -0.500977,0.026367 -0.165681,0.013237 -0.328838,0.03146 -0.492187,0.052734 -0.163349,0.021274 -0.325512,0.047061 -0.486328,0.076172 -0.160816,0.029111 -0.3223869,0.062863 -0.4804691,0.099609 -0.1580821,0.036746 -0.3136024,0.075936 -0.46875,0.1201172 C 9.1173134,2.4201577 8.9645121,2.468116 8.8125,2.5195313 8.6604879,2.5709465 8.510004,2.625145 8.3613281,2.6835938 8.2126522,2.7420425 8.0640841,2.8058122 7.9189453,2.8710938 7.7738065,2.9363753 7.6326119,3.0042583 7.4912109,3.0761719 7.34981,3.1480855 7.2097278,3.2234128 7.0722656,3.3017578 6.9348034,3.3801028 6.7983617,3.4603461 6.6650391,3.5449219 6.5317164,3.6294976 6.4014432,3.717988 6.2724609,3.8085938 6.1434787,3.8991995 6.0160426,3.9934086 5.8916016,4.0898437 5.7671605,4.1862789 5.6450896,4.2836784 5.5253906,4.3857422 5.4056917,4.487806 5.2885842,4.5946567 5.1738281,4.7021484 5.0590721,4.8096402 4.9465264,4.9204841 4.8369141,5.0332031 4.7273017,5.1459222 4.6218459,5.2611606 4.5175781,5.3789062 4.4133103,5.4966519 4.3116131,5.6166863 4.2128906,5.7392578 4.1141682,5.8618294 4.0187575,5.9841313 3.9257813,6.1113281 3.832805,6.2385249 3.7403495,6.3693552 3.6533203,6.5009766 3.5662911,6.6325979 3.4822485,6.7664986 3.4013672,6.9023437 3.3204859,7.0381889 3.2444545,7.1755614 3.1699219,7.3154297 3.0953892,7.455298 3.0240378,7.5965436 2.9560547,7.7402344 2.8880716,7.8839252 2.8239281,8.0294452 2.7626953,8.1767578 2.7014626,8.3240704 2.6411956,8.4742663 2.5869141,8.625 2.5326325,8.7757337 2.4816999,8.9280771 2.4345703,9.0820313 2.3874408,9.2359854 2.3454408,9.3908777 2.3056641,9.5478516 2.2658874,9.7048254 2.2294886,9.8626681 2.1972656,10.022461 c -0.032223,0.159793 -0.060492,0.320987 -0.084961,0.483398 -0.024469,0.162412 -0.04501,0.327359 -0.061523,0.492188 -0.016513,0.164829 -0.029729,0.331001 -0.038086,0.498047 -0.00836,0.167046 -0.011719,0.334844 -0.011719,0.503906 0,0.22375 0.00598,0.444888 0.020508,0.665039 0.014525,0.220151 0.03879,0.44016 0.067383,0.65625 0.028593,0.21609 0.063266,0.430036 0.1054687,0.641602 0.042203,0.211565 0.091129,0.420374 0.1464844,0.626953 0.055356,0.206578 0.1165194,0.411176 0.1845703,0.612304 0.068051,0.201129 0.1423678,0.399512 0.2226563,0.594727 0.080288,0.195215 0.1657439,0.385379 0.2578125,0.574219 0.092069,0.188839 0.1895777,0.37464 0.2929687,0.55664 0.1033911,0.182001 0.213869,0.361434 0.328125,0.536133 0.114256,0.174699 0.2327585,0.345761 0.3574219,0.512695 0.1246634,0.166935 0.2550351,0.330552 0.3896484,0.489258 0.1346134,0.158707 0.2748397,0.312875 0.4189453,0.462891 0.1441057,0.150016 0.2921721,0.295661 0.4453125,0.436523 0.1531405,0.140863 0.309962,0.275981 0.4716797,0.407227 0.1617178,0.131246 0.3282095,0.256763 0.4980469,0.37793 0.1698375,0.121167 0.3439847,0.238008 0.5214844,0.348632 C 6.6707423,20.386524 6.6145759,20.272383 6.5625,20.15625 6.5104241,20.040117 6.4612261,19.921289 6.4160156,19.801758 6.3708051,19.682227 6.3311226,19.561172 6.2929687,19.438477 6.2548149,19.315781 6.2184057,19.192031 6.1875,19.066406 6.1565943,18.940781 6.1289351,18.813867 6.1054687,18.685547 6.0820024,18.557227 6.0627106,18.42668 6.046875,18.295898 6.0310394,18.165117 6.0197322,18.033398 6.0117187,17.900391 6.0037053,17.767383 6,17.634023 6,17.499023 c 0,-0.208749 0.00945,-0.416616 0.029297,-0.621093 0.019845,-0.204478 0.049122,-0.404324 0.087891,-0.603516 0.038768,-0.199192 0.086786,-0.395975 0.1435547,-0.588867 0.056769,-0.192892 0.1224411,-0.382781 0.196289,-0.568359 0.073848,-0.185579 0.156089,-0.36767 0.2460938,-0.544922 0.090005,-0.177252 0.1877291,-0.350644 0.2929687,-0.518555 0.1052397,-0.167911 0.2173618,-0.331701 0.3369141,-0.489258 0.1195524,-0.157557 0.2479163,-0.307913 0.3808594,-0.454101 0.132943,-0.146189 0.2706039,-0.288068 0.4160156,-0.421875 0.1454117,-0.133807 0.2971433,-0.260448 0.4541016,-0.38086 0.1569582,-0.120411 0.321675,-0.233841 0.4892578,-0.339844 0.1675828,-0.106002 0.3383397,-0.205319 0.515625,-0.295898 0.1772852,-0.09058 0.3588562,-0.171951 0.5449218,-0.246094 0.186066,-0.07414 0.377365,-0.139597 0.571289,-0.196289 0.193924,-0.05669 0.390937,-0.105327 0.591797,-0.143554 0.20086,-0.03823 0.40543,-0.06621 0.612305,-0.08496 0.143124,-0.01313 0.282899,-0.03206 0.421875,-0.05859 0.138975,-0.02653 0.275969,-0.06036 0.410156,-0.09961 0.134187,-0.03925 0.266749,-0.08642 0.395508,-0.137695 0.128759,-0.05128 0.255238,-0.107305 0.377929,-0.169922 0.122692,-0.06262 0.241438,-0.131809 0.357422,-0.205078 0.115985,-0.07327 0.228276,-0.151142 0.336914,-0.234375 0.108638,-0.08323 0.212825,-0.1711645 0.313477,-0.2636717 0.100652,-0.092507 0.198013,-0.1889454 0.290039,-0.2900391 0.09203,-0.1010937 0.180911,-0.2074146 0.263672,-0.3164063 0.08276,-0.1089916 0.158588,-0.2207129 0.231445,-0.336914 0.07286,-0.1162011 0.142766,-0.2346999 0.205078,-0.3574219 0.06231,-0.122722 0.118793,-0.2493751 0.169922,-0.3779297 0.05113,-0.1285545 0.09546,-0.2588796 0.134766,-0.3925781 0.03931,-0.1336986 0.07277,-0.2720022 0.09961,-0.4101563 0.02684,-0.138154 0.04778,-0.2770241 0.06152,-0.4189453 0.01374,-0.1419211 0.02051,-0.2856643 0.02051,-0.430664 0,-0.1449997 -0.0089,-0.288035 -0.02344,-0.4306641 C 15.961029,5.9276834 15.939551,5.7849314 15.911133,5.6455078 15.882715,5.5060842 15.850176,5.367805 15.808594,5.2324219 15.767011,5.0970388 15.71909,4.964492 15.665039,4.8339844 15.610988,4.7034767 15.549222,4.5749925 15.483398,4.4501953 15.417575,4.3253981 15.346431,4.2051659 15.269531,4.0869141 15.192631,3.9686622 15.110718,3.8550121 15.023438,3.7441406 14.936157,3.6332691 14.842081,3.5245312 14.745117,3.421875 14.648153,3.3192188 14.546382,3.2225122 14.44043,3.1289063 14.334478,3.0353003 14.226548,2.9460254 14.112305,2.8623047 13.998061,2.778584 13.879652,2.6980005 13.757813,2.625 13.635973,2.5519995 13.508621,2.4842969 13.379883,2.4228516 13.251144,2.3614063 13.119317,2.3078442 12.984375,2.2587891 12.849433,2.2097339 12.711738,2.1657129 12.571289,2.1298828 c -0.140449,-0.03583 -0.282474,-0.063191 -0.427734,-0.084961 -0.14526,-0.02177 -0.293008,-0.03707 -0.442383,-0.043945 z m -0.202149,3 c 0.10375,0 0.204004,0.00936 0.301758,0.029297 0.09775,0.019941 0.194414,0.05 0.28418,0.087891 0.08976,0.037891 0.172168,0.083848 0.251953,0.1376953 0.07978,0.053848 0.154844,0.1167578 0.222656,0.1845703 0.06781,0.067812 0.130723,0.1428712 0.184571,0.2226562 0.05385,0.079785 0.0998,0.1621876 0.137695,0.2519532 0.03789,0.089765 0.06795,0.1864259 0.08789,0.2841796 0.01994,0.097754 0.0293,0.1980081 0.0293,0.3017579 0,0.1037497 -0.0094,0.204004 -0.0293,0.3017578 -0.01994,0.097754 -0.05,0.1944141 -0.08789,0.2841797 -0.03789,0.089765 -0.08385,0.172168 -0.137695,0.2519531 -0.05385,0.079785 -0.116758,0.1548438 -0.184571,0.2226562 -0.06781,0.067813 -0.142871,0.1307227 -0.222656,0.1845703 -0.07978,0.053848 -0.162188,0.099805 -0.251953,0.1376954 -0.08977,0.037891 -0.186426,0.067949 -0.28418,0.087891 -0.09775,0.019941 -0.198008,0.029297 -0.301758,0.029297 -0.103749,0 -0.204004,-0.00936 -0.301757,-0.029297 -0.09775,-0.019941 -0.194415,-0.05 -0.28418,-0.087891 -0.08977,-0.037891 -0.172168,-0.083848 -0.251953,-0.1376954 -0.07978,-0.053848 -0.154844,-0.1167578 -0.222656,-0.1845703 -0.06781,-0.067812 -0.130723,-0.1428711 -0.184571,-0.2226562 -0.05385,-0.079785 -0.0998,-0.1621876 -0.137695,-0.2519531 -0.03789,-0.089766 -0.06795,-0.186426 -0.08789,-0.2841797 -0.01994,-0.097754 -0.029297,-0.1980081 -0.029297,-0.3017578 0,-0.1037498 0.00936,-0.2040041 0.029297,-0.3017579 0.01994,-0.097754 0.05,-0.1944141 0.08789,-0.2841796 0.03789,-0.089766 0.08385,-0.1721681 0.137695,-0.2519532 0.05385,-0.079785 0.116758,-0.1548438 0.184571,-0.2226562 0.06781,-0.067813 0.142871,-0.1307227 0.222656,-0.1845703 0.07979,-0.053848 0.162187,-0.099805 0.251953,-0.1376953 0.08976,-0.037891 0.186426,-0.067949 0.28418,-0.087891 0.09775,-0.019941 0.198008,-0.029297 0.301757,-0.029297 z"
     style="fill:#000000;stroke:none;fill-opacity:1"
     id="path7" />
  <path
     d="m 12.500977,15.999023 c -0.10375,0 -0.204004,0.0094 -0.301758,0.0293 -0.09775,0.01994 -0.194414,0.05 -0.28418,0.08789 -0.08976,0.03789 -0.172168,0.08385 -0.251953,0.137695 -0.07978,0.05385 -0.154844,0.116758 -0.222656,0.184571 -0.06781,0.06781 -0.130723,0.142871 -0.184571,0.222656 -0.05385,0.07979 -0.0998,0.162187 -0.137695,0.251953 -0.03789,0.08976 -0.06795,0.186426 -0.08789,0.28418 -0.01994,0.09775 -0.0293,0.198008 -0.0293,0.301757 0,0.10375 0.0094,0.204004 0.0293,0.301758 0.01994,0.09775 0.05,0.194414 0.08789,0.28418 0.03789,0.08976 0.08385,0.172168 0.137695,0.251953 0.05385,0.07979 0.116758,0.154844 0.184571,0.222656 0.06781,0.06781 0.142871,0.130723 0.222656,0.184571 0.07978,0.05385 0.162188,0.0998 0.251953,0.137695 0.08977,0.03789 0.186426,0.06795 0.28418,0.08789 0.09775,0.01994 0.198008,0.0293 0.301758,0.0293 0.103749,0 0.204004,-0.0094 0.301757,-0.0293 0.09775,-0.01994 0.194415,-0.05 0.28418,-0.08789 0.08977,-0.03789 0.172168,-0.08385 0.251953,-0.137695 0.07978,-0.05385 0.154844,-0.116758 0.222656,-0.184571 0.06781,-0.06781 0.130723,-0.142871 0.184571,-0.222656 0.05385,-0.07979 0.0998,-0.162188 0.137695,-0.251953 0.03789,-0.08977 0.06795,-0.186426 0.08789,-0.28418 0.01994,-0.09775 0.0293,-0.198008 0.0293,-0.301758 0,-0.103749 -0.0094,-0.204004 -0.0293,-0.301757 -0.01994,-0.09775 -0.05,-0.194415 -0.08789,-0.28418 -0.03789,-0.08977 -0.08385,-0.172168 -0.137695,-0.251953 -0.05385,-0.07979 -0.116758,-0.154844 -0.184571,-0.222656 -0.06781,-0.06781 -0.142871,-0.130723 -0.222656,-0.184571 -0.07979,-0.05385 -0.162187,-0.0998 -0.251953,-0.137695 -0.08976,-0.03789 -0.186426,-0.06795 -0.28418,-0.08789 -0.09775,-0.01994 -0.198008,-0.0293 -0.301757,-0.0293 z"
     style="fill:#000000"
     id="path10" />
</svg>
