<?xml version="1.0" encoding="UTF-8" standalone="no"?>
<svg
   id="Layer_1"
   data-name="Layer 1"
   viewBox="0 0 24 24"
   width="16"
   height="16"
   version="1.1"
   sodipodi:docname="yin-yang-dark.svg"
   inkscape:version="1.3 (0e150ed6c4, 2023-07-21)"
   xmlns:inkscape="http://www.inkscape.org/namespaces/inkscape"
   xmlns:sodipodi="http://sodipodi.sourceforge.net/DTD/sodipodi-0.dtd"
   xmlns="http://www.w3.org/2000/svg"
   xmlns:svg="http://www.w3.org/2000/svg">
  <defs
     id="defs1" />
  <sodipodi:namedview
     id="namedview1"
     pagecolor="#ffffff"
     bordercolor="#000000"
     borderopacity="0.25"
     inkscape:showpageshadow="2"
     inkscape:pageopacity="0.0"
     inkscape:pagecheckerboard="0"
     inkscape:deskcolor="#d1d1d1"
     inkscape:zoom="37.3125"
     inkscape:cx="3.5108878"
     inkscape:cy="8.2948074"
     inkscape:window-width="1920"
     inkscape:window-height="1009"
     inkscape:window-x="1912"
     inkscape:window-y="-2"
     inkscape:window-maximized="1"
     inkscape:current-layer="Layer_1" />
  <path
     d="m 12.500977,15.999023 c -0.10375,0 -0.206934,0.01229 -0.304688,0.03223 -0.09775,0.01994 -0.191484,0.04707 -0.28125,0.08496 -0.08976,0.03789 -0.175098,0.08678 -0.254883,0.140625 -0.07979,0.05385 -0.154844,0.113828 -0.222656,0.181641 -0.06781,0.06781 -0.127793,0.142871 -0.181641,0.222656 -0.05385,0.07979 -0.0998,0.165117 -0.137695,0.254883 -0.03789,0.08976 -0.06795,0.183496 -0.08789,0.28125 -0.01994,0.09775 -0.0293,0.198008 -0.0293,0.301757 0,0.10375 0.0094,0.206934 0.0293,0.304688 0.01994,0.09775 0.05,0.191484 0.08789,0.28125 0.03789,0.08976 0.08385,0.175098 0.137695,0.254883 0.05385,0.07979 0.113829,0.154844 0.181641,0.222656 0.06781,0.06781 0.142871,0.127793 0.222656,0.181641 0.07978,0.05385 0.165118,0.0998 0.254883,0.137695 0.08977,0.03789 0.183496,0.06795 0.28125,0.08789 0.09775,0.01994 0.200938,0.0293 0.304688,0.0293 0.103749,0 0.204004,-0.0094 0.301757,-0.0293 0.09775,-0.01994 0.191485,-0.05 0.28125,-0.08789 0.08977,-0.03789 0.175098,-0.08385 0.254883,-0.137695 0.07978,-0.05385 0.154844,-0.113829 0.222656,-0.181641 0.06781,-0.06781 0.127793,-0.142871 0.181641,-0.222656 0.05385,-0.07979 0.102734,-0.165118 0.140625,-0.254883 0.03789,-0.08977 0.06502,-0.183496 0.08496,-0.28125 0.01994,-0.09775 0.03223,-0.200938 0.03223,-0.304688 0,-0.103749 -0.01229,-0.204004 -0.03223,-0.301757 -0.01994,-0.09775 -0.04707,-0.191485 -0.08496,-0.28125 -0.03789,-0.08977 -0.08678,-0.175098 -0.140625,-0.254883 -0.05385,-0.07979 -0.113828,-0.154844 -0.181641,-0.222656 -0.06781,-0.06781 -0.142871,-0.127793 -0.222656,-0.181641 -0.07979,-0.05385 -0.165117,-0.102734 -0.254883,-0.140625 -0.08976,-0.03789 -0.183496,-0.06502 -0.28125,-0.08496 -0.09775,-0.01994 -0.198008,-0.03223 -0.301757,-0.03223 z"
     id="path6"
     style="" />
  <path
     id="path3"
     style=""
     d="M 12 0 C 11.793125 0 11.586163 0.0042669879 11.381836 0.014648438 C 11.177509 0.025029887 10.976915 0.041013218 10.775391 0.061523438 C 10.573865 0.082033647 10.373276 0.10730902 10.174805 0.13769531 C 9.9763325 0.1680816 9.7781734 0.20315438 9.5830078 0.24316406 C 9.3878422 0.28317375 9.1945364 0.32854929 9.0029297 0.37792969 C 8.811323 0.42731008 8.6223653 0.48056408 8.4345703 0.5390625 C 8.2467753 0.59756092 8.0616604 0.66212842 7.8779297 0.72949219 C 7.694199 0.79685594 7.5124215 0.86738296 7.3330078 0.94335938 C 7.1535941 1.0193358 6.9746487 1.0992574 6.7998047 1.1835938 C 6.6249607 1.2679302 6.4542013 1.3577517 6.2841797 1.4501953 C 6.1141581 1.542639 5.9452201 1.6399361 5.7802734 1.7402344 C 5.6153269 1.8405326 5.4535642 1.9428811 5.2939453 2.0507812 C 5.1343265 2.1586813 4.9763041 2.2695162 4.8222656 2.3847656 C 4.6682273 2.500015 4.5192991 2.6198415 4.3710938 2.7421875 C 4.2228885 2.8645335 4.0766898 2.9909274 3.9345703 3.1201172 C 3.7924509 3.249307 3.6543357 3.3827737 3.5185547 3.5185547 C 3.3827737 3.6543357 3.249307 3.7924509 3.1201172 3.9345703 C 2.9909274 4.0766898 2.8645335 4.2228885 2.7421875 4.3710938 C 2.6198415 4.5192991 2.500015 4.6682273 2.3847656 4.8222656 C 2.2695162 4.9763041 2.1586813 5.1343265 2.0507812 5.2939453 C 1.9428811 5.4535642 1.8405326 5.6153269 1.7402344 5.7802734 C 1.6399361 5.9452201 1.542639 6.1141581 1.4501953 6.2841797 C 1.3577517 6.4542013 1.2679302 6.6249607 1.1835938 6.7998047 C 1.0992574 6.9746487 1.0193358 7.1535941 0.94335938 7.3330078 C 0.86738296 7.5124215 0.79685594 7.694199 0.72949219 7.8779297 C 0.66212842 8.0616604 0.59756092 8.2467753 0.5390625 8.4345703 C 0.48056408 8.6223653 0.42731008 8.811323 0.37792969 9.0029297 C 0.32854929 9.1945364 0.28317375 9.3878422 0.24316406 9.5830078 C 0.20315438 9.7781734 0.1680816 9.9763325 0.13769531 10.174805 C 0.10730902 10.373276 0.082033647 10.573865 0.061523438 10.775391 C 0.041013218 10.976915 0.025029887 11.177509 0.014648438 11.381836 C 0.0042669879 11.586163 0 11.793125 0 12 C 0 12.206875 0.0042669879 12.413837 0.014648438 12.618164 C 0.025029887 12.822491 0.041013218 13.023085 0.061523438 13.224609 C 0.082033647 13.426135 0.10730902 13.626724 0.13769531 13.825195 C 0.16808158 14.023667 0.20315435 14.221826 0.24316406 14.416992 C 0.28317372 14.612158 0.32854931 14.805464 0.37792969 14.99707 C 0.42731004 15.188677 0.48056408 15.377634 0.5390625 15.56543 C 0.59756094 15.753224 0.66212842 15.938339 0.72949219 16.12207 C 0.79685592 16.305801 0.86738296 16.487578 0.94335938 16.666992 C 1.0193358 16.846406 1.0992574 17.025351 1.1835938 17.200195 C 1.2679297 17.375039 1.3577517 17.545799 1.4501953 17.71582 C 1.5426392 17.885842 1.6399361 18.05478 1.7402344 18.219727 C 1.8405326 18.384672 1.9428811 18.546436 2.0507812 18.706055 C 2.1586813 18.865674 2.2695162 19.023697 2.3847656 19.177734 C 2.500015 19.331773 2.6198415 19.480701 2.7421875 19.628906 C 2.8645335 19.777112 2.9909274 19.92331 3.1201172 20.06543 C 3.249307 20.207549 3.3827737 20.345664 3.5185547 20.481445 C 3.6543357 20.617226 3.7924509 20.750693 3.9345703 20.879883 C 4.0766898 21.009073 4.2228885 21.135467 4.3710938 21.257812 C 4.5192991 21.380159 4.6682273 21.499985 4.8222656 21.615234 C 4.9763041 21.730484 5.1343265 21.841318 5.2939453 21.949219 C 5.4535642 22.057119 5.6153269 22.159467 5.7802734 22.259766 C 5.9452201 22.360064 6.1141581 22.457361 6.2841797 22.549805 C 6.4542013 22.642245 6.6249607 22.73207 6.7998047 22.816406 C 6.9746487 22.900746 7.1535941 22.980664 7.3330078 23.056641 C 7.5124215 23.132621 7.694199 23.203144 7.8779297 23.270508 C 8.0616604 23.337868 8.2467753 23.40244 8.4345703 23.460938 C 8.6223653 23.519437 8.811323 23.57269 9.0029297 23.62207 C 9.1945364 23.67145 9.3878422 23.71683 9.5830078 23.756836 C 9.7781734 23.796846 9.9763325 23.831916 10.174805 23.862305 C 10.373276 23.892695 10.573865 23.917967 10.775391 23.938477 C 10.976915 23.958987 11.177509 23.974972 11.381836 23.985352 C 11.586163 23.99574 11.793125 24 12 24 C 12.206875 24 12.413837 23.995702 12.618164 23.985352 C 12.822491 23.974972 13.023085 23.958987 13.224609 23.938477 C 13.426135 23.917967 13.626724 23.892685 13.825195 23.862305 C 14.023667 23.831915 14.221826 23.796845 14.416992 23.756836 C 14.612158 23.716826 14.805464 23.671456 14.99707 23.62207 C 15.188677 23.57269 15.377634 23.519436 15.56543 23.460938 C 15.753224 23.402438 15.938339 23.337872 16.12207 23.270508 C 16.305801 23.203148 16.487578 23.132617 16.666992 23.056641 C 16.846406 22.980661 17.025351 22.900743 17.200195 22.816406 C 17.375039 22.732066 17.545799 22.642248 17.71582 22.549805 C 17.885842 22.457365 18.05478 22.360064 18.219727 22.259766 C 18.384672 22.159467 18.546436 22.057119 18.706055 21.949219 C 18.865674 21.841318 19.023697 21.730484 19.177734 21.615234 C 19.331773 21.499985 19.480701 21.380159 19.628906 21.257812 C 19.777112 21.135467 19.92331 21.009073 20.06543 20.879883 C 20.207549 20.750693 20.345664 20.617226 20.481445 20.481445 C 20.617226 20.345664 20.750693 20.207549 20.879883 20.06543 C 21.009073 19.92331 21.135467 19.777112 21.257812 19.628906 C 21.380159 19.480701 21.499985 19.331773 21.615234 19.177734 C 21.730484 19.023697 21.841318 18.865674 21.949219 18.706055 C 22.057119 18.546436 22.159467 18.384672 22.259766 18.219727 C 22.360064 18.05478 22.457361 17.885842 22.549805 17.71582 C 22.642245 17.545799 22.73207 17.375039 22.816406 17.200195 C 22.900746 17.025351 22.980664 16.846406 23.056641 16.666992 C 23.132621 16.487578 23.203144 16.305801 23.270508 16.12207 C 23.337868 15.938339 23.40244 15.753224 23.460938 15.56543 C 23.519437 15.377634 23.57269 15.188677 23.62207 14.99707 C 23.67145 14.805464 23.71683 14.612158 23.756836 14.416992 C 23.796846 14.221826 23.831916 14.023667 23.862305 13.825195 C 23.892695 13.626724 23.917967 13.426135 23.938477 13.224609 C 23.958987 13.023085 23.974972 12.822491 23.985352 12.618164 C 23.99574 12.413832 24 12.206875 24 12 C 24 11.793125 23.995702 11.586163 23.985352 11.381836 C 23.974972 11.177509 23.958987 10.976915 23.938477 10.775391 C 23.917967 10.573865 23.892685 10.373276 23.862305 10.174805 C 23.831913 9.9763325 23.796846 9.7781734 23.756836 9.5830078 C 23.716826 9.3878422 23.671451 9.1945364 23.62207 9.0029297 C 23.57269 8.811323 23.519436 8.6223653 23.460938 8.4345703 C 23.40244 8.2467753 23.337872 8.0616604 23.270508 7.8779297 C 23.203144 7.694199 23.132617 7.5124215 23.056641 7.3330078 C 22.980664 7.1535941 22.900743 6.9746487 22.816406 6.7998047 C 22.73207 6.6249607 22.642248 6.4542013 22.549805 6.2841797 C 22.457361 6.1141581 22.360064 5.9452201 22.259766 5.7802734 C 22.159467 5.6153269 22.057119 5.4535642 21.949219 5.2939453 C 21.841318 5.1343265 21.730484 4.9763041 21.615234 4.8222656 C 21.499985 4.6682273 21.380159 4.5192991 21.257812 4.3710938 C 21.135467 4.2228885 21.009073 4.0766898 20.879883 3.9345703 C 20.750693 3.7924509 20.617226 3.6543357 20.481445 3.5185547 C 20.345664 3.3827737 20.207549 3.249307 20.06543 3.1201172 C 19.92331 2.9909274 19.777112 2.8645335 19.628906 2.7421875 C 19.480701 2.6198415 19.331773 2.500015 19.177734 2.3847656 C 19.023697 2.2695162 18.865674 2.1586813 18.706055 2.0507812 C 18.546436 1.9428811 18.384672 1.8405326 18.219727 1.7402344 C 18.05478 1.6399361 17.885842 1.542639 17.71582 1.4501953 C 17.545799 1.3577517 17.375039 1.2679302 17.200195 1.1835938 C 17.025351 1.0992574 16.846406 1.0193358 16.666992 0.94335938 C 16.487578 0.86738296 16.305801 0.79685594 16.12207 0.72949219 C 15.938339 0.66212842 15.753224 0.59756092 15.56543 0.5390625 C 15.377634 0.48056408 15.188677 0.42731008 14.99707 0.37792969 C 14.805464 0.32854929 14.612158 0.28317375 14.416992 0.24316406 C 14.221826 0.20315438 14.023667 0.1680816 13.825195 0.13769531 C 13.626724 0.10730902 13.426135 0.082033647 13.224609 0.061523438 C 13.023085 0.041013218 12.822491 0.025029887 12.618164 0.014648438 C 12.413837 0.0042669879 12.206875 0 12 0 z M 17.270508 3.5009766 C 17.448008 3.6116014 17.622144 3.7255056 17.791992 3.8466797 C 17.961841 3.9678538 18.128301 4.0962795 18.290039 4.2275391 C 18.451777 4.3587985 18.60855 4.4938846 18.761719 4.6347656 C 18.914888 4.7756467 19.062891 4.9212503 19.207031 5.0712891 C 19.351172 5.2213278 19.491323 5.375447 19.625977 5.5341797 C 19.760629 5.6929122 19.890918 5.856475 20.015625 6.0234375 C 20.140332 6.1904 20.258745 6.3614042 20.373047 6.5361328 C 20.487349 6.7108614 20.597734 6.8902348 20.701172 7.0722656 C 20.804609 7.2542965 20.902026 7.440037 20.994141 7.6289062 C 21.086251 7.8177756 21.171621 8.0078813 21.251953 8.203125 C 21.332283 8.3983687 21.406519 8.5966972 21.474609 8.7978516 C 21.542699 8.9990059 21.603789 9.2035551 21.65918 9.4101562 C 21.71457 9.6167573 21.763433 9.8255257 21.805664 10.037109 C 21.847894 10.248694 21.885455 10.462608 21.914062 10.678711 C 21.942672 10.894814 21.963986 11.114802 21.978516 11.334961 C 21.993056 11.555119 21.999023 11.77625 21.999023 12 C 21.999023 12.169375 21.995625 12.336584 21.987305 12.503906 C 21.979005 12.671228 21.965699 12.839812 21.949219 13.004883 C 21.932739 13.169953 21.912105 13.331521 21.887695 13.494141 C 21.863275 13.65676 21.834894 13.820498 21.802734 13.980469 C 21.770574 14.140439 21.736964 14.297956 21.697266 14.455078 C 21.657566 14.6122 21.612476 14.766825 21.56543 14.920898 C 21.51839 15.074973 21.46727 15.227102 21.413086 15.37793 C 21.358896 15.528758 21.301367 15.678789 21.240234 15.826172 C 21.179104 15.973555 21.114754 16.118957 21.046875 16.262695 C 20.978995 16.406434 20.907434 16.547605 20.833008 16.6875 C 20.758578 16.827395 20.682337 16.967663 20.601562 17.103516 C 20.520793 17.239367 20.436533 17.373272 20.349609 17.504883 C 20.262689 17.636494 20.172952 17.764431 20.080078 17.891602 C 19.987208 18.018771 19.891594 18.14407 19.792969 18.266602 C 19.694339 18.389132 19.592459 18.50926 19.488281 18.626953 C 19.384103 18.744646 19.278476 18.86 19.168945 18.972656 C 19.059414 19.085312 18.946717 19.196291 18.832031 19.303711 C 18.717346 19.411131 18.60011 19.515204 18.480469 19.617188 C 18.360828 19.719172 18.238655 19.816735 18.114258 19.913086 C 17.98986 20.009436 17.862353 20.103818 17.733398 20.194336 C 17.604444 20.284856 17.474134 20.373522 17.34082 20.458008 C 17.207507 20.542498 17.071067 20.622918 16.933594 20.701172 C 16.796121 20.779422 16.656082 20.854934 16.514648 20.926758 C 16.373216 20.998578 16.22918 21.066641 16.083984 21.131836 C 15.93879 21.197026 15.793289 21.258039 15.644531 21.316406 C 15.495773 21.374776 15.345481 21.432058 15.193359 21.483398 C 15.041239 21.534738 14.885755 21.579908 14.730469 21.624023 C 14.575183 21.668133 14.419971 21.710383 14.261719 21.74707 C 14.103467 21.78376 13.942269 21.81761 13.78125 21.84668 C 13.620231 21.87574 13.458508 21.898682 13.294922 21.919922 C 13.131336 21.941162 12.96576 21.959436 12.799805 21.972656 C 12.63385 21.985876 12.466953 21.994023 12.298828 21.999023 C 12.149453 21.992123 12.001721 21.979778 11.856445 21.958008 C 11.71117 21.936238 11.569189 21.905947 11.428711 21.870117 C 11.288233 21.834287 11.150608 21.793197 11.015625 21.744141 C 10.880642 21.695081 10.748906 21.638594 10.620117 21.577148 C 10.49133 21.51571 10.364083 21.448 10.242188 21.375 C 10.120291 21.302 10.002002 21.224346 9.8876953 21.140625 C 9.7733889 21.056904 9.6655882 20.967629 9.5595703 20.874023 C 9.4535525 20.780419 9.3519139 20.680781 9.2548828 20.578125 C 9.1578518 20.475469 9.0639085 20.369661 8.9765625 20.258789 C 8.8892165 20.147918 8.8074315 20.031338 8.7304688 19.913086 C 8.6535059 19.794834 8.5824827 19.674602 8.5166016 19.549805 C 8.4507203 19.425007 8.3890624 19.296522 8.3349609 19.166016 C 8.2808595 19.035508 8.2330296 18.902961 8.1914062 18.767578 C 8.1497828 18.632195 8.1143847 18.493916 8.0859375 18.354492 C 8.0574905 18.215068 8.0360574 18.075246 8.0214844 17.932617 C 8.0069114 17.789988 8.0009766 17.644023 8.0009766 17.499023 C 8.0009766 17.354025 8.0077464 17.210281 8.0214844 17.068359 C 8.0352274 16.926439 8.0561628 16.787568 8.0830078 16.649414 C 8.1098538 16.51126 8.1433082 16.375886 8.1826172 16.242188 C 8.2219261 16.10849 8.2662503 15.975234 8.3173828 15.84668 C 8.3685158 15.718125 8.4249879 15.594402 8.4873047 15.47168 C 8.5496216 15.348958 8.616592 15.227529 8.6894531 15.111328 C 8.7623141 14.995127 8.8410622 14.883406 8.9238281 14.774414 C 9.006594 14.665422 9.0954689 14.559101 9.1875 14.458008 C 9.2795309 14.356914 9.3739528 14.260476 9.4746094 14.167969 C 9.5752659 14.075459 9.6823733 13.987529 9.7910156 13.904297 C 9.899658 13.821067 10.011941 13.743191 10.12793 13.669922 C 10.243918 13.596652 10.362656 13.527461 10.485352 13.464844 C 10.608046 13.402224 10.734519 13.346199 10.863281 13.294922 C 10.992043 13.243642 11.121671 13.196472 11.255859 13.157227 C 11.390049 13.117977 11.527039 13.087077 11.666016 13.060547 C 11.804992 13.034017 11.947695 13.012143 12.09082 12.999023 C 12.297695 12.980273 12.502259 12.952302 12.703125 12.914062 C 12.903991 12.875823 13.100987 12.827223 13.294922 12.770508 C 13.488857 12.713788 13.6772 12.648398 13.863281 12.574219 C 14.049363 12.500039 14.233828 12.41875 14.411133 12.328125 C 14.588437 12.237505 14.759153 12.13828 14.926758 12.032227 C 15.094363 11.926172 15.256104 11.812851 15.413086 11.692383 C 15.570068 11.571914 15.721751 11.44539 15.867188 11.311523 C 16.012623 11.177657 16.153164 11.035898 16.286133 10.889648 C 16.419101 10.7434 16.544486 10.590234 16.664062 10.432617 C 16.78364 10.275 16.898643 10.114258 17.003906 9.9462891 C 17.10917 9.7783206 17.206848 9.6050387 17.296875 9.4277344 C 17.386905 9.2504301 17.469102 9.0684371 17.542969 8.8828125 C 17.616839 8.6971879 17.682473 8.5073824 17.739258 8.3144531 C 17.796038 8.1215238 17.844034 7.9248043 17.882812 7.7255859 C 17.921592 7.5263676 17.950853 7.3236324 17.970703 7.1191406 C 17.990556 6.9146448 18 6.7097262 18 6.5009766 C 18 6.3659768 17.996301 6.2296873 17.988281 6.0966797 C 17.980281 5.9636721 17.968985 5.8319528 17.953125 5.7011719 C 17.937265 5.5703909 17.915092 5.4427732 17.891602 5.3144531 C 17.868102 5.1861331 17.84344 5.0592185 17.8125 4.9335938 C 17.78156 4.8079691 17.74522 4.6812888 17.707031 4.5585938 C 17.668848 4.4358988 17.626289 4.3148435 17.581055 4.1953125 C 17.53582 4.0757815 17.48959 3.9598826 17.4375 3.84375 C 17.38541 3.7276174 17.329258 3.6134764 17.270508 3.5009766 z M 11.499023 5.0009766 C 11.602773 5.0009766 11.705957 5.0103365 11.803711 5.0302734 C 11.901461 5.0502144 11.995195 5.0802731 12.084961 5.1181641 C 12.174721 5.156054 12.260059 5.2020121 12.339844 5.2558594 C 12.419634 5.3097073 12.494688 5.3696877 12.5625 5.4375 C 12.63031 5.5053119 12.690293 5.5803713 12.744141 5.6601562 C 12.797991 5.7399412 12.843941 5.8252736 12.881836 5.9150391 C 12.919726 6.004804 12.949787 6.0985354 12.969727 6.1962891 C 12.989667 6.294043 12.999023 6.3972268 12.999023 6.5009766 C 12.999023 6.6047264 12.989627 6.7049807 12.969727 6.8027344 C 12.949787 6.9004883 12.919726 6.9942189 12.881836 7.0839844 C 12.843946 7.1737493 12.797986 7.2590822 12.744141 7.3388672 C 12.690291 7.4186521 12.630312 7.4937111 12.5625 7.5615234 C 12.49469 7.6293364 12.419629 7.6893165 12.339844 7.7431641 C 12.260064 7.797012 12.174726 7.8458985 12.084961 7.8837891 C 11.995191 7.921679 11.901465 7.948808 11.803711 7.96875 C 11.705961 7.988691 11.602773 8.0009766 11.499023 8.0009766 C 11.395275 8.0009766 11.295019 7.988692 11.197266 7.96875 C 11.099516 7.948809 11.005781 7.92168 10.916016 7.8837891 C 10.826246 7.8458981 10.740918 7.797012 10.661133 7.7431641 C 10.581353 7.6893161 10.506288 7.6293359 10.438477 7.5615234 C 10.370667 7.4937115 10.310684 7.4186522 10.256836 7.3388672 C 10.202986 7.2590823 10.154102 7.1737498 10.116211 7.0839844 C 10.078321 6.9942185 10.05119 6.9004881 10.03125 6.8027344 C 10.01131 6.7049805 9.9990234 6.6047264 9.9990234 6.5009766 C 9.9990234 6.3972268 10.011309 6.2940428 10.03125 6.1962891 C 10.05119 6.0985352 10.078321 6.0048045 10.116211 5.9150391 C 10.154101 5.8252732 10.202991 5.7399413 10.256836 5.6601562 C 10.310686 5.5803713 10.370664 5.5053123 10.438477 5.4375 C 10.506286 5.3696881 10.581348 5.3097069 10.661133 5.2558594 C 10.740923 5.2020114 10.82625 5.1560543 10.916016 5.1181641 C 11.005776 5.0802731 11.099512 5.0502154 11.197266 5.0302734 C 11.295016 5.0103325 11.395275 5.0009766 11.499023 5.0009766 z M 11.90918 11.000977 C 11.702305 11.019727 11.497741 11.047698 11.296875 11.085938 C 11.096009 11.124177 10.899013 11.172768 10.705078 11.229492 C 10.511143 11.286212 10.3228 11.351602 10.136719 11.425781 C 9.9506373 11.499965 9.7661715 11.58125 9.5888672 11.671875 C 9.4115629 11.7625 9.2408468 11.86172 9.0732422 11.967773 C 8.9056376 12.073828 8.7409664 12.187149 8.5839844 12.307617 C 8.4270022 12.428086 8.2782493 12.55461 8.1328125 12.688477 C 7.9873757 12.822343 7.8468357 12.964102 7.7138672 13.110352 C 7.5808987 13.2566 7.4555149 13.409766 7.3359375 13.567383 C 7.2163601 13.725 7.1013572 13.885742 6.9960938 14.053711 C 6.8908304 14.22168 6.7931517 14.394961 6.703125 14.572266 C 6.6130981 14.749569 6.5308984 14.931563 6.4570312 15.117188 C 6.3831643 15.302811 6.3175267 15.492617 6.2607422 15.685547 C 6.2039572 15.878476 6.1559668 16.075196 6.1171875 16.274414 C 6.0784085 16.473633 6.0491479 16.676368 6.0292969 16.880859 C 6.0094462 17.085351 6 17.290275 6 17.499023 C 6 17.290275 6.0094499 17.085351 6.0292969 16.880859 C 6.0491479 16.676368 6.0784075 16.473633 6.1171875 16.274414 C 6.1559665 16.075196 6.2039575 15.878476 6.2607422 15.685547 C 6.3175271 15.492617 6.3831642 15.302811 6.4570312 15.117188 C 6.5308979 14.931563 6.6130983 14.749569 6.703125 14.572266 C 6.7931517 14.394961 6.8908304 14.22168 6.9960938 14.053711 C 7.1013572 13.885742 7.2163601 13.725 7.3359375 13.567383 C 7.4555149 13.409766 7.5808987 13.2566 7.7138672 13.110352 C 7.8468357 12.964102 7.9873757 12.822343 8.1328125 12.688477 C 8.2782493 12.55461 8.4270022 12.428086 8.5839844 12.307617 C 8.7409664 12.187149 8.9056376 12.073828 9.0732422 11.967773 C 9.2408468 11.86172 9.4115629 11.7625 9.5888672 11.671875 C 9.7661715 11.581255 9.9506373 11.499961 10.136719 11.425781 C 10.3228 11.351601 10.511143 11.286211 10.705078 11.229492 C 10.899013 11.172772 11.096009 11.124179 11.296875 11.085938 C 11.497741 11.047698 11.702305 11.019727 11.90918 11.000977 z " />
</svg>
